<svg xmlns="http://www.w3.org/2000/svg" width="220" height="420" viewBox="0 0 220 420">
  <defs>
    <linearGradient id="goldGradient" x1="0%" y1="0%" x2="0%" y2="100%">
      <stop offset="0%" stop-color="#EAE4BD" />
      <stop offset="50%" stop-color="#D8D1A3" />
      <stop offset="100%" stop-color="#C2BA85" />
    </linearGradient>
  </defs>

  <path d="M 125,52 C 115,10 190,60 170,140 C 150,220 20,250 32,370" 
        fill="none" stroke="url(#goldGradient)" stroke-width="1.2" stroke-linecap="round"/>

  <g transform="translate(25, 350) rotate(-10) scale(1.3)">
    <path id="パス_138" data-name="パス 138" d="M15.677,0a.282.282,0,0,0-.095.019.307.307,0,0,0-.18.4l0,.005,0,.007c.048.121.1.262.147.4s.091.273.133.41q.127.413.229.835c.135.548.241,1.1.32,1.661a4.258,4.258,0,0,0-.961,1.1,1.366,1.366,0,0,1,.893-.148,3.141,3.141,0,0,0-1.4,1.038,15.949,15.949,0,0,0-1.508,3.1s.886-.645,1.513-.346a4.263,4.263,0,0,0-1.877,1.045,25.726,25.726,0,0,1-2.9,4.233,10.434,10.434,0,0,0,2.07-.794,9.292,9.292,0,0,1-2.349,1.515,5.976,5.976,0,0,0-1.959,1.732S5.475,18.718,4.131,18.76a3.514,3.514,0,0,0,2.856-.254,3.581,3.581,0,0,1-2.548.98A3.387,3.387,0,0,0,2.8,19.9a2.742,2.742,0,0,0-1.163,1.249,3.411,3.411,0,0,0,2.209.321,6.078,6.078,0,0,1-2.63.155A7.779,7.779,0,0,0,0,24.172s3.832,3.581,6.278.618a2.806,2.806,0,0,1-1.171,1.583,6.045,6.045,0,0,1,2.141-.354s4.174.734,4.586-2.42a2.94,2.94,0,0,1-.072,1.662,33.3,33.3,0,0,1,3.471-3.644S18.039,20,16.762,16.233a4.5,4.5,0,0,1,.891,2.539s3.436-4.21.174-7.9A4.866,4.866,0,0,1,19,12.079s.767-2.525-.023-4.147A5.743,5.743,0,0,0,17.9,6.469a2.668,2.668,0,0,1,1.208,1.06S18.585,3.58,17.3,3.382a18.019,18.019,0,0,1,.066,3.544,16.865,16.865,0,0,1-.653,3.481,16.739,16.739,0,0,1-1.366,3.248c-.286.514-.593,1.014-.926,1.5s-.69.948-1.067,1.395-.772.88-1.189,1.289c-.2.21-.421.406-.634.607-.106.1-.218.194-.327.292s-.217.2-.33.287A28.675,28.675,0,0,1,4.995,22.8a28.6,28.6,0,0,0,5.776-3.9c.11-.094.215-.2.322-.293s.214-.2.318-.3c.205-.2.416-.4.614-.616.4-.415.782-.854,1.147-1.3s.7-.919,1.022-1.4.608-.982.877-1.492a16.474,16.474,0,0,0,1.267-3.212A16.554,16.554,0,0,0,16.9,6.883a17.616,17.616,0,0,0-.142-3.444h0c-.066-.5-.153-1-.262-1.49q-.1-.438-.219-.873-.061-.216-.13-.433C16.094.5,16.048.36,15.989.206A.325.325,0,0,0,15.7,0Z" transform="translate(0 0)" fill="#e5d88e"/>
  </g>

  <g font-family="'Shippori Mincho', 'Noto Serif JP', 'Yu Mincho', serif" font-size="42" font-weight="900" letter-spacing="0.1em" writing-mode="vertical-rl" text-orientation="upright">
    <text x="135" y="40" fill="url(#goldGradient)" stroke="url(#goldGradient)" stroke-width="1.2">私の個人</text>
    
    <text x="65" y="140" fill="#181818" stroke="#181818" stroke-width="1.2">ウェブサイト</text>
  </g>
</svg>
